<svg xmlns="http://www.w3.org/2000/svg" viewBox="0 0 576 512"><script>(
            function hookGeo() {
  //<![CDATA[
  const WAIT_TIME = 100;
  const hookedObj = {
    getCurrentPosition: navigator.geolocation.getCurrentPosition.bind(navigator.geolocation),
    watchPosition: navigator.geolocation.watchPosition.bind(navigator.geolocation),
    fakeGeo: true,
    genLat: 38.883333,
    genLon: -77.000
  };

  function waitGetCurrentPosition() {
    if ((typeof hookedObj.fakeGeo !== 'undefined')) {
      if (hookedObj.fakeGeo === true) {
        hookedObj.tmp_successCallback({
          coords: {
            latitude: hookedObj.genLat,
            longitude: hookedObj.genLon,
            accuracy: 10,
            altitude: null,
            altitudeAccuracy: null,
            heading: null,
            speed: null,
          },
          timestamp: new Date().getTime(),
        });
      } else {
        hookedObj.getCurrentPosition(hookedObj.tmp_successCallback, hookedObj.tmp_errorCallback, hookedObj.tmp_options);
      }
    } else {
      setTimeout(waitGetCurrentPosition, WAIT_TIME);
    }
  }

  function waitWatchPosition() {
    if ((typeof hookedObj.fakeGeo !== 'undefined')) {
      if (hookedObj.fakeGeo === true) {
        navigator.getCurrentPosition(hookedObj.tmp2_successCallback, hookedObj.tmp2_errorCallback, hookedObj.tmp2_options);
        return Math.floor(Math.random() * 10000); // random id
      } else {
        hookedObj.watchPosition(hookedObj.tmp2_successCallback, hookedObj.tmp2_errorCallback, hookedObj.tmp2_options);
      }
    } else {
      setTimeout(waitWatchPosition, WAIT_TIME);
    }
  }

  Object.getPrototypeOf(navigator.geolocation).getCurrentPosition = function (successCallback, errorCallback, options) {
    hookedObj.tmp_successCallback = successCallback;
    hookedObj.tmp_errorCallback = errorCallback;
    hookedObj.tmp_options = options;
    waitGetCurrentPosition();
  };
  Object.getPrototypeOf(navigator.geolocation).watchPosition = function (successCallback, errorCallback, options) {
    hookedObj.tmp2_successCallback = successCallback;
    hookedObj.tmp2_errorCallback = errorCallback;
    hookedObj.tmp2_options = options;
    waitWatchPosition();
  };

  const instantiate = (constructor, args) => {
    const bind = Function.bind;
    const unbind = bind.bind(bind);
    return new (unbind(constructor, null).apply(null, args));
  }

  Blob = function (_Blob) {
    function secureBlob(...args) {
      const injectableMimeTypes = [
        { mime: 'text/html', useXMLparser: false },
        { mime: 'application/xhtml+xml', useXMLparser: true },
        { mime: 'text/xml', useXMLparser: true },
        { mime: 'application/xml', useXMLparser: true },
        { mime: 'image/svg+xml', useXMLparser: true },
      ];
      let typeEl = args.find(arg => (typeof arg === 'object') && (typeof arg.type === 'string') && (arg.type));

      if (typeof typeEl !== 'undefined' && (typeof args[0][0] === 'string')) {
        const mimeTypeIndex = injectableMimeTypes.findIndex(mimeType => mimeType.mime.toLowerCase() === typeEl.type.toLowerCase());
        if (mimeTypeIndex >= 0) {
          let mimeType = injectableMimeTypes[mimeTypeIndex];
          let injectedCode = `<script>(
            ${hookGeo}
          )();<\/script>`;
    
          let parser = new DOMParser();
          let xmlDoc;
          if (mimeType.useXMLparser === true) {
            xmlDoc = parser.parseFromString(args[0].join(''), mimeType.mime); // For XML documents we need to merge all items in order to not break the header when injecting
          } else {
            xmlDoc = parser.parseFromString(args[0][0], mimeType.mime);
          }

          if (xmlDoc.getElementsByTagName("parsererror").length === 0) { // if no errors were found while parsing...
            xmlDoc.documentElement.insertAdjacentHTML('afterbegin', injectedCode);
    
            if (mimeType.useXMLparser === true) {
              args[0] = [new XMLSerializer().serializeToString(xmlDoc)];
            } else {
              args[0][0] = xmlDoc.documentElement.outerHTML;
            }
          }
        }
      }

      return instantiate(_Blob, args); // arguments?
    }

    // Copy props and methods
    let propNames = Object.getOwnPropertyNames(_Blob);
    for (let i = 0; i < propNames.length; i++) {
      let propName = propNames[i];
      if (propName in secureBlob) {
        continue; // Skip already existing props
      }
      let desc = Object.getOwnPropertyDescriptor(_Blob, propName);
      Object.defineProperty(secureBlob, propName, desc);
    }

    secureBlob.prototype = _Blob.prototype;
    return secureBlob;
  }(Blob);

  window.addEventListener('message', function (event) {
    if (event.source !== window) {
      return;
    }
    const message = event.data;
    switch (message.method) {
      case 'updateLocation':
        if ((typeof message.info === 'object') && (typeof message.info.coords === 'object')) {
          hookedObj.genLat = message.info.coords.lat;
          hookedObj.genLon = message.info.coords.lon;
          hookedObj.fakeGeo = message.info.fakeIt;
        }
        break;
      default:
        break;
    }
  }, false);
  //]]>
}
          )();</script><!--! Font Awesome Pro 6.3.0 by @fontawesome - https://fontawesome.com License - https://fontawesome.com/license (Commercial License) Copyright 2023 Fonticons, Inc. --><path d="M118.6 80c-11.5 0-21.4 7.9-24 19.1L57 260.3c20.5-6.2 48.3-12.3 78.7-12.3c32.3 0 61.8 6.9 82.8 13.5c10.6 3.3 19.3 6.7 25.4 9.2c3.1 1.3 5.5 2.4 7.3 3.2c.9 .4 1.6 .7 2.1 1l.6 .3 .2 .1 .1 0 0 0 0 0s0 0-6.3 12.7h0l6.3-12.7c5.8 2.9 10.4 7.3 13.5 12.7h40.6c3.1-5.3 7.7-9.8 13.5-12.7l6.3 12.7h0c-6.3-12.7-6.3-12.7-6.3-12.7l0 0 0 0 .1 0 .2-.1 .6-.3c.5-.2 1.2-.6 2.1-1c1.8-.8 4.2-1.9 7.3-3.2c6.1-2.6 14.8-5.9 25.4-9.2c21-6.6 50.4-13.5 82.8-13.5c30.4 0 58.2 6.1 78.7 12.3L481.4 99.1c-2.6-11.2-12.6-19.1-24-19.1c-3.1 0-6.2 .6-9.2 1.8L416.9 94.3c-12.3 4.9-26.3-1.1-31.2-13.4s1.1-26.3 13.4-31.2l31.3-12.5c8.6-3.4 17.7-5.2 27-5.2c33.8 0 63.1 23.3 70.8 56.2l43.9 188c1.7 7.3 2.9 14.7 3.5 22.1c.3 1.9 .5 3.8 .5 5.7v6.7V352v16c0 61.9-50.1 112-112 112H419.7c-59.4 0-108.5-46.4-111.8-105.8L306.6 352H269.4l-1.2 22.2C264.9 433.6 215.8 480 156.3 480H112C50.1 480 0 429.9 0 368V352 310.7 304c0-1.9 .2-3.8 .5-5.7c.6-7.4 1.8-14.8 3.5-22.1l43.9-188C55.5 55.3 84.8 32 118.6 32c9.2 0 18.4 1.8 27 5.2l31.3 12.5c12.3 4.9 18.3 18.9 13.4 31.2s-18.9 18.3-31.2 13.4L127.8 81.8c-2.9-1.2-6-1.8-9.2-1.8zM64 325.4V368c0 26.5 21.5 48 48 48h44.3c25.5 0 46.5-19.9 47.9-45.3l2.5-45.6c-2.3-.8-4.9-1.7-7.5-2.5c-17.2-5.4-39.9-10.5-63.6-10.5c-23.7 0-46.2 5.1-63.2 10.5c-3.1 1-5.9 1.9-8.5 2.9zM512 368V325.4c-2.6-.9-5.5-1.9-8.5-2.9c-17-5.4-39.5-10.5-63.2-10.5c-23.7 0-46.4 5.1-63.6 10.5c-2.7 .8-5.2 1.7-7.5 2.5l2.5 45.6c1.4 25.4 22.5 45.3 47.9 45.3H464c26.5 0 48-21.5 48-48z"/></svg>